<?xml version="1.0" encoding="UTF-8"?>
<!-- Generator: Adobe Illustrator 26.5.0, SVG Export Plug-In . SVG Version: 6.00 Build 0)  -->
<svg version="1.1" id="Layer_1" xmlns="http://www.w3.org/2000/svg" xmlns:xlink="http://www.w3.org/1999/xlink" x="0px" y="0px" viewBox="0 0 48 34" style="enable-background:new 4 4 44 30;" xml:space="preserve">
<path fill="#ffffff" d="M16.6,17c2.1-2.1,4.8-4.6,7.5-4.6s5.4,2.5,7.5,4.6l0,0c-2.1,2.1-4.8,4.6-7.5,4.6S18.7,19.1,16.6,17L16.6,17  L16.6,17z"/>
<path fill="#ffffff" d="M32.5,22.9c-2.8,2.1-4.8,3.3-6.2,3.9c-0.4,0.2-0.9,0.4-1.4,0.4c-0.2,0-0.4,0-0.5,0.1c-0.8,0.1-1.7-0.1-2.5-0.5  c-1.3-0.6-3.4-1.8-6.2-3.9c-0.4-0.3-0.7-0.6-1.1-0.9l0,0C13.1,20.9,4,13.1,4,13.1L0,17c0.1,0.1,0.2,0.2,0.3,0.3  c0.1,0.1,0.2,0.2,0.3,0.3c0.3,0.3,0.7,0.6,1,1c0.2,0.2,0.5,0.4,0.7,0.7c0.3,0.3,0.6,0.6,0.9,0.8c0.1,0.1,0.3,0.2,0.4,0.4  c0.7,0.6,1.4,1.3,2.1,1.9c5.6,5,12.3,10,16.9,10.9c0.5,0.1,1,0.2,1.5,0.2c0.1,0,0.2,0,0.3,0h0.1c0.2,0,0.3,0,0.5-0.1  c0.2,0,0.4-0.1,0.6-0.1c0.1,0,0.2,0,0.3-0.1l0,0c0.2-0.1,0.4-0.1,0.7-0.2c3.8-1.2,8.8-4.7,13.4-8.5l-4.6-3.9  C34.4,21.4,33.4,22.2,32.5,22.9z"/>
<path fill="#ffffff" d="M46.6,15.4c-0.2-0.2-0.5-0.4-0.7-0.7c-0.3-0.3-0.6-0.6-0.9-0.8c-0.1-0.1-0.3-0.2-0.4-0.4  c-0.7-0.6-1.4-1.3-2.1-1.9c-5.7-5-12.3-10-16.9-10.9c-0.5-0.1-1-0.2-1.5-0.2c-0.1,0-0.2,0-0.3,0h-0.1c-0.2,0-0.3,0-0.5,0  s-0.4,0.1-0.6,0.1c-0.1,0-0.2,0-0.3,0.1l0,0c-0.2,0.1-0.4,0.1-0.7,0.2c-3.8,1.2-8.8,4.7-13.4,8.5l0,0l4.6,3.9  c0.9-0.8,1.9-1.5,2.8-2.2c2.8-2.1,4.8-3.3,6.2-3.9c0.4-0.2,0.9-0.4,1.4-0.4c0.2,0,0.4,0,0.5-0.1c0.9,0,1.7,0.1,2.5,0.5  c1.3,0.6,3.4,1.8,6.2,3.9c1.5,1.1,6,4.9,6.1,5c0.2,0.2,5.5,4.7,5.5,4.7l4-3.9c-0.2-0.2-0.4-0.4-0.6-0.6C47.3,16,46.9,15.7,46.6,15.4  z"/>
</svg>